<?xml version="1.0" encoding="utf-8"?><!-- Uploaded to: SVG Repo, www.svgrepo.com, Generator: SVG Repo Mixer Tools -->
<svg width="800px" height="800px" viewBox="0 0 24 24" fill="none" xmlns="http://www.w3.org/2000/svg">
<path d="M7 3H5C3.89543 3 3 3.89543 3 5V7M7 21H5C3.89543 21 3 20.1046 3 19V17M17 3H19C20.1046 3 21 3.89543 21 5V7M17 21H19C20.1046 21 21 20.1046 21 19V17M11 13H12V9M16 9.5V8M9 16.5C10.5 17.5 13.5 17.5 15 16.5M8 9.5V8" stroke="#000000" stroke-width="2" stroke-linecap="round" stroke-linejoin="round"/>
</svg>