<?xml version="1.0" encoding="iso-8859-1"?>
<!-- Uploaded to: SVG Repo, www.svgrepo.com, Generator: SVG Repo Mixer Tools -->
<svg height="800px" width="800px" version="1.1" id="Layer_1" xmlns="http://www.w3.org/2000/svg" xmlns:xlink="http://www.w3.org/1999/xlink" 
	 viewBox="0 0 280.028 280.028" xml:space="preserve">
<g>
	<path style="fill:#EBEBEB;" d="M17.502,43.755h245.024c9.626,0,17.502,7.876,17.502,17.502v157.515
		c0,9.626-7.876,17.502-17.502,17.502H17.502C7.876,236.273,0,228.398,0,218.771V61.257C0,51.631,7.876,43.755,17.502,43.755z"/>
	<path style="fill:#CCD0D2;" d="M148.765,105.011v17.502h87.509v-17.502H148.765z M148.765,157.516h87.509v-17.502h-87.509V157.516z
		 M148.765,192.52h87.509v-17.502h-87.509V192.52z"/>
	<path style="fill:#868686;" d="M87.509,105.011c9.626,0,17.502,7.876,17.502,17.502s0,19.252,0,21.877
		c0,4.375-8.751,13.126-8.751,13.126v8.751l26.253,10.501v15.752H43.754v-16.627l26.253-10.501v-8.751c0,0-8.751-7.876-8.751-13.126
		v-21.002c0-9.626,7.876-17.502,17.502-17.502C78.758,105.011,87.509,105.011,87.509,105.011z"/>
	<path style="fill:#CCD0D2;" d="M262.526,43.755H17.502C7.876,43.755,0,51.631,0,61.257v8.751h280.027v-8.751
		C280.027,51.631,272.152,43.755,262.526,43.755z"/>
</g>
</svg>